<svg viewBox="0 0 86.62 72.07" xmlns="http://www.w3.org/2000/svg"><g fill="#fff" transform="translate(-3.57 -6.03)"><path d="m9.69 78-.22-1-.14-.14-.22.21-.21-.07.1-3.15-.43-.72h-.32l-.07.07-.36 2.45-.07.51-.15-.16-.14-.5v-.65l-.07-1.8-.15-.36-.14-.14-.29-.44v-.28l.07-.15.22-.21v-.15l-.29-.86-.07-.15-.58-.31-.16-.11h-.34l-1.08-.72-.72-.93-.22-.8v-.07l-.07-.07.14-.43-.07-.15.22-.43h.07l.14.07.08.08.5 1 .14.15.08.14 1.29.72.15.15.57.21.12-.07.44-.22.07-.21.21-.58v-.36l.28-1.22.11-.15v-.14l.07-.22.82-3.81v-.58l-.29-5.33v-.57l.36-2.88.08-.22v-.14l.79-4v-.22l.07-.14.07-.22.92-3.53.07-.14v-.46l.86-3 .07-.29.08-.07.07-.29.72-2.23v-.21l.14-.36 1.37-4 .07-.22.07-.07.15-.22 2.16-5.69.07-.21.07-.07.07-.22 1.52-4.18.07-.21v-.15l.14-.21.78-2.5.15-.29.07-.29.65-2.16v-.43l-.36-.07-.87 1.44-.21.14-.36-.79.07-.79.65-.87.14-.36.22-.07 1.94-2.81.58-2.23.07-.21.65-.8.72-.41.29.08.5-.08.29-.21h.26l.8-.15h.07l.72-.43.21-.14.36-.22.44-.57.07-.15.67-.13.14.36v.14l.15.22.07 1.73.07.14.36.36 3.38-.29.15-.07h.21l.15.07 2.66.34.22-.07.43.21.22.08.79.21.36.22h.14l2.67 1.22.21.15 1.15.43.22.07.14.07 2.16 1.8.08.07 1.65 1.8.07.22.08.07.07.22 1.87 2.59 1.15 2.16.15.14v.22l.07.22.57 1.65.08.22.07.14.57 2.67.08.14-.08.22.44 2.95-.22 4.17-.07.22-.36 2.59v.29l-.07.14-.08.29-.36 1.51-.21.51-.58 1.94-.14.51-.79 2-.08.15-.07.21v.15l-1.08 2.36-.36.65-.84 1.73-.15.14-.07.22-.14.14-1.44 2.67-.15.21-.14.07-.07.22-2.54 3.67-.15.15-.07.14-.14.22-2.31 3.09-.43.36-3 3.24-.36.36-2.31 2-.21.14-.07.07-2.67 2-2.39 1.48-.15.07-.14.15-2.23 1.22-.22.07-.22.15-2.16 1-.21.08-.07.07h-.29l-2.5.93-.22.08-.29.14-2.37.43h-2.18l-.51.51-.36-.22-.57.65v.5l-.72 1.8-.07.22v.29l-.65.72-.15-.15-.21-.5h-.15l-.5.72-.05.07zm-.43-11.56h.21l.22-.65v-.22l.07-.21.65-3.36.07-.21.07-.15.08-1 .07-.07-.22-.21-.14.21-.58 1.8v.07l-.07.22-.43 2.34zm.14 8.56.36-.28v-.44l.07-.14.08-.58-.08-.21h-.21l-.07.07-.08.14v.22l-.14 1v.14zm1.3-8 .36-.72 1.8-8.49v-.15l-.07-.21-.08.07-.21.36v.5l-.43.43.07-.36-.07-.07-.22.07-.07.22-.51 1.35-.14.21-.07.07v.29l-.43 1.73v.07l-.08.22-.14.79-.07.22v.28l-.22 1.23-.14.21.07.87h.22l.36-1 .07-.22v-.07l.14.07v.15l-.21.57v1.11zm2.59-14.1.22-.29.07-.21.07-.29.29-.87v-.24l-.22.28-.36 1.16-.07.21zm1.22 13.54h.15l.36-.36.07-.36.22-1v-.22l.07-.29v-.14l1.08-4.46v-.61l1.15-4.68.14-.36 1.23-5 .07-.22.07-.07 2.38-8.78v-.36l-.15.21-.86 1.73-.43 1.37-.06.16-.08.14-.07.22-1.58 5.68v.65l-.94 3.17-.07.22v.21l-.07.15-1.44 6.33-.15.29-.14.22-1 5.25zm.8 6.19h.57l.22-.07 3.24-.94.36-.07.14-.15 1.16-.5.15-.07 3.59-1.83.14-.15.22-.07.14-.14 2.52-1.44.24-.2.36-.21 1.44-1 .14-.15.15-.07.14-.14 2.09-1.66.21-.14.15-.07.14-.15 1-1.22.14-.07v-.12l-.21-.29.57-.57.08-.22h.07l2.16-2.3.29-.29.14-.22 2.23-2.8.07-.15.29-.36 2.09-3.09.14-.15.08-.21.21-.51-.17.16-2.31 3.31-.36.36-1.72 2.23-.22.14-.14.29-2.25 2.48-.14.29-.07.07-.29.15-1.77 1.68-.07.15h-.15l-.93.5-.94.79-.14.15-.22.14-.14.07-2.59 1.88-.22.14-.07.07-.26.11-1.15.87-.07.14v.07h.07l2-1.15h.15l.21-.14 1.59-1.15.43-.22 1.22-.86.15-.08v.15l-.29.29-1.15.93h-.22l-.5.58h-.15l-.28.14-.22.36h-.14l-.29.29-2.61 1.78-.22.07-.07.07-.22.08-3.09 1.65-.22.15h-.14l-1.23.57-.21.22-.29.07-3.24 1.15-.36.15-1.08.36zm.07-6.7.5.15.22-.08.36-.14 2.3-1.51.24-.15.29-.28 3.52-2.67.22-.14.29-.36.21-.22h.15l.14-.21 3.6-3.24.22-.22.29-.22 4.24-4.53.15-.22.07-.07.14-.22 3-4v-.14l.07-.15.22-.07.5-.72.14-.29.22-.21 2.81-5 .14-.14.22-.29 1.73-3.82.07-.29v-.07l.14-.29 1-3.09.14-.22.08-.14.07-.22.43-2.52.07-.14v-.22l.07-.21.29-1.8.07-.15v-.41l-.01-4v-.58l-.5-1.58v-.43l-.07-.15-.43-1.26v-.3l-.14-.29-.43-.79-.15-.14-.14-.29-1.8-2-.12-.19h-.15l-2.3-1.59h-.14l-.36-.21-2.74-1.2-.14-.07h-.22l-.17-.07-1.66-.36h-.34l-.22.07-2.73.07-.29.15-.07.14-.15.36v.07l.15.36v.08l-.07.14h-.08l-.14-.07-.07-.15-.07-.07h-.22l-.07.22v.5l.07.51.07.14v.43l-.11 3.24v.36l-.07.22-.22 1.29v.29l-.07.15v.21l-.79 3.31-.08.29v.07l-.07.22-1.22 4-.07.22-.08.14-.07.22-.57 1.94-.08.15v.23l.15.15v.14l-.07.07-1.75 4.84-.07.21-.08.07-.07.29-2.09 7.42-.14.43-.07.14-2.09 7.92v.15l-.07.21-1 3.89-.07.22.07.14-.07.15-.51 2.16v.21l-.07.07-.14.29-1 5zm2.88-.14.57-.22.15-.14.72-.58.43-.14.5-.72.15-.15h.22l.36-.43h-.07l-.07.07-.29.15-.86.72-.07.14-.15.07-1.44.87-.14.14zm3.38-2.31.43-.5h.15v-.07l.21-.22h-.21l-.22.07-.29.15-.07.14-.14.36zm10.23-.07.21-.36.22-.14.21.07-.07.07-.43.36zm.86-.72v-.07l.36-.5h.14l.15-.08.07.08-.5.5zm4.75-50.33.15-.07-.72-.57-.22-.08-1.3-.36h-.39l-.07.15.07.07h.15l2.16.79zm.94.65.07-.14-.14.07zm8.28 10.8h.14v-.14l.07-.07v-.15l-.07-.07-.07-.22-.07-.07-.07.07v.58z"/><path d="m90.19 9.41v.36l-.08.07-.5.22-.36.14-.29.29-.21.07-.08.15v.21l.22 1-.07 4.32-.15.36-1 2.67-.08.21-.07.07v.08h.29l.14.14-.28.58-.15.36-.72 1.29-.07.22-.14.14-.08.15-.93 1.58-.15.22-.07.14-.14.14-2.88 4.11-.15.21-.07.15-.21.14-.58.87-.22.21v.07l-.14.22-1.44 1.66-.14.21-.29.29-1.87 2.09-.08.14-.14.15-.22.14-1.37.94-.14.14-.21.07h-.8l-.14-.07-.07-.14-.06-.07.07-.21.14-.22.43-1.08.15-.14.93-1.59.15-.14.21-.36 1.08-1.87.15-.36.21-.22.65-1.08.15-.36.14-.21 2.29-4.28.15-.15v-.07l.07-.07v-.22l.14-.21.72-1.37v-.22l.22-.36.95-2.2.14-.21v-.15l.14-.29.65-1.94.07-.29v-1.44h-.07l-.29-.07h-.5l-.22.07-.14.07-1.44.8-.22.21h-.12l-.21.15-1.44 1.08-.15.14-.14.07-.15.15-.91.72-.15.14-.14.07-.14.22-2.17 2.16-.07.14-.14.07-.36.36-2.21 2.64-.15.14-.07.15-.14.21-1.87 2.38-.08.14-.21.15-.15.21-1.58 2.52-.14.22-.15.36-1.15 1.65-.22.36v.29l-.57.94-.15.36-.14.14-.58 1.3-.07.14-.07.07h-.07l-.06-.04v-.21l.07-.08v-.14h-.15l-.07.07-.07.22-.36 1.65-.22.29v.36l-.14.87v.21l.36.36.07.15v.07l-.07.07v.14l.14.29h.29l.15.07 7 2 .29.14 2.45 1.37.21.07.36.22 1.87 1.37.15.14.14.07.29.29.29.14h.57l.29.08.09.03.22.14 1.08 1.37.14.14v.15l.15.14.57 1.3.08.21v.36l-.8 4.11-.07.14v.22l-.07.14-.79 1.8-.15.22-.14.36-1.66 2.52-.28.29-.08.21-1.22 1.44-.14.15-.08.14-.14.14-2 2.24-.14.14-.14.07-.15.22-3.38 3-.15.15-.07.14-.21.07-2.24 1.73-.21.14-.15.08-.14.14-.86.5-.15.15-.14.07-.22.07-2.66 1.6-.22.14h-.07l-.21.14-1.8.94-.15.14-.43.22-1.37.65-.65.14-1.65.65h-.65l-4.47-.94-.21.08h-.14l-.22-.08-1-.5-.21-.07-.08-.15-.14-.21v-.29l.14-.43v-.22l.08-.36-.16-.36-.14-.07-.15-.14-.36-.15-.21-.07-.14-.07-.15-.19-.43-1.29.5-2.31.15-.07.07-.14.14-.07.07-.08.07.08 1.52-.44.14.22.07.22.15.14.14.07h.43l.07-.07.15.07h.14v.07l.15.08h.29l1.72-.15h.22l.14-.07.22-.14 3.6-1.66.14-.14.15-.08.21-.07 3.17-1.87.15-.14.36-.15 2.25-1.47.57-.29 1-.72.15-.14.14-.07.22-.15 1.36-1 .15-.14.21-.07.15-.22 2.37-1.87.36-.43 1.08-1.23.08-.14.14-.14.07-.15.72-1.22.07-.22v-.07l.08-.29.21-1.08-.07-.21-.29-.51-.08-.18-.14-.15-.08-.14-.72-.71-.14-.22-.14-.07-1.3-.79-.36-.22-.22-.07-1.8-.93-.14-.15-.36-.07-1.66-.65-.5-.21-2.38-.51-.28-.11-.08-.15v-.07h.22l1.37.15.21-.08h.08l.14-.07.07-.14v-.07l-.14-.15h-.34l-.15.15-.14.07-.07.07-.22-.07-1-.22h-.42l-.21-.07-1.23-.43-.5-.22h-.58l-.14-.07v.07l.14.22v.14h-.18l-.22-.06-.14-.14-1.59-2.26-.07-.14-.14-.14-.07-.15-.36-1-.08-.36v-.86l-.07-.29-.29-.86v-.22l-.07-.14-.14-.07-.15-.15-.07-.22-.07-.15-.14-1.8v-.57l.28-2 .08-.22v-.16l.86-2.38.07-.21.15-.36 1.72-2.88.15-.22.06-.05.43-.65.15-.14.28-.36 1.44-2 .22-.36.14-.21 2-2.31 1.8-1.8.14-.21.08-.15.21-.07 2.45-2.23.14-.15.36-.28 2.31-1.95.21-.14.15-.15.21-.07 2.6-2.09.43-.14.21-.22 2-1.65.14-.15.15-.07.21-.14.94-.58.36-.21.29-.22 1.95-.9.43-.15h.22l1.35-.14h.28l.07-.11.65-.18.36-.22.22-.07h.42l.07-.07.08.07h.07v.22h-.07l-.08.07-.21.07-1.66.58-.36.14-.21.15-.58.36-.22.14-.14.07-.22.07.22.29.14-.07 4.83-.86.21-.08h.13l.07.08h.07v.14l-.05.1h-.15l-.07.08-.14.07h-.22l-.14.07-.22.07-.28.15v.07l.21.07.58.07h.57l1.88-.07h.21l.07.07.15.07.07.15-.07.14h-.07l-.08.29v.07zm-39 63.94v-.07l-.07-.22-.65-.65h-.28l-.08.07-.07-.07-.29-.14-.07-.07v.14l.07.14.22.22h.14l.08.14.14.08.5.5h.17l.14-.07zm16.46-13.11v-.07h-.07v-.07h-.22l-.07.07-.22.07-1.44 1.23-.21.14h-.15l-.14.15-2.38 1.58-.28.14-.15.15-2.59 1.58-.22.07-.14.08-.22.14-3.52 1.87-.36.07-.15.15-1.08.5h-.21l-.08.15-.14.43v.21l.14.15h.25l.15-.07 1.29-.51.29-.14.14-.15 2.2-1.16.22-.07.36-.22 3-1.87.22-.07.29-.29 3.09-2.16.15-.07.29-.29 1.72-1.44.08-.07.07-.14zm-2 2.81.22-.14h-.22v.09l-.28.07-1 .72-.29.15-2.74 1.72-.21.22-.29.14-1.73 1-.21.15-.08.07-.21.14-1.95 1.08h-.28l-.08.15-.21.14-.79.43-.15.15-.07.14v.07l-.08.06-.29.15-.07.07h-.07v.07h.36l.86-.29.14-.07.08-.07v-.29l.19-.17 2.31-1 .28-.15.08-.07.21-.07 2-1.22.21-.15h.07l.22-.14.5-.43.29-.15h.07l.22-.21 1-.8.21-.07.15-.07.21-.22zm-4.46-27 .07-.57-.07-.29v-.19l-.07.15-.15.65-.07.21v.07l-.07.22-.07.07v.07l.07.15v.07l.14.07.03-.03v-.22zm3.72 8.95h-.14l.14.07 1.8.72.22.07.72.29.14.07.36.15.15.14.14.07-.07.08v.07l-.07.07h-.22l-.29-.14-.21-.15-.29-.14-.22-.07-.86-.15h-.29l-.07-.07-.14-.08-.08-.15-.07-.07h-.07l-.29-.14h-.07l-.14.14v.07l.14.29h.14l1.44.36.36.15 1.3.57.14.15.36.21 1.8.94.08.07h.07v-.07l-.07-.15v-.07h.25l.08.07.14.29v.29l.07.07h.36l.36.22.51.5.28.07.22.15.07-.07v-.15l-.21-.21-1.52-1.23-.21-.14-.15-.16-.14-.07-1.37-1.08-.21-.07-.08-.14-.43-.44-.21-.07-.12-.13-.21-.15-1.44-.64-.37-.15h-.14zm12-26.57v-.23h-.15l-.14.14-.79.65-.15.14-.36.29-1.44 1.3-.07.21-.36.29-1.73 1.87-.28.29-.08.14-1.08 1.37-.21.22-.07.14-.15.15-.72 1-.22.29-.07.07-.04.24-.36.65-.07.21-.22.36-.36.94-.57.86-.22.36-.79 1.37-.21.25v.14l-.07.15-.79 2.23-.07.14-.07.34h.21l.07-.14.08-.22.14-.5.14-.22v-.14l.08-.22 1.58-2.88.14-.21.15-.36.29-.51.14-.21.14-.29 1.59-2.38.21-.21.08-.15.14-.21.64-1.15.36-.36.14-.07h.07v-.14l.08-.07v-.15l.07-.14.14-.22 1.66-1.85.29-.29.21-.14 1.3-1.37.57-.5 1.08-1.23zm-8.07 41-.07.07.07.08zm.65-12.09h-.43l-.06-.06v-.21l.07-.07h.07l.29.14.07.07zm.51.57-.15-.14-.07-.15v-.07h.22l.21.22v.14zm3.38 7.92-.43.43-.15.22v.29l-.07.14-.14.07-.43.65-.08.22-.08.15h.15l.14-.21.71-1.15.14-.07.15-.29.21-.07h.07l.08-.21.5-.87.14-.21v-.15h.15l.21-.21.15-.08.07-.14.43-.65.07-.29v-.57l-.07-.15h-.07l-.29.29-.07.22-.14.29-.15.57-.29.36-.79 1.3zm7.73-47.43.29-.21.07-.19-.14-.07h-.07l-.15.07h-.11-.17l-1.16.8-.28.21h.28l1.33-.61zm7.28 4.6v-.5l-.08-.15-.07-.07h-.14l-.15.07v.65l.08.15.07.07h.07z"/></g></svg>