<?xml version="1.0" standalone="no"?>
<!DOCTYPE svg PUBLIC "-//W3C//DTD SVG 20010904//EN"
 "http://www.w3.org/TR/2001/REC-SVG-20010904/DTD/svg10.dtd">
<svg version="1.0" xmlns="http://www.w3.org/2000/svg"
 width="1000.000000pt" height="1000.000000pt" viewBox="0 0 1000.000000 1000.000000"
 preserveAspectRatio="xMidYMid meet">

<g transform="translate(0.000000,1000.000000) scale(0.100000,-0.100000)"
fill="#fff" stroke="none">
<path d="M7910 8929 c-24 -18 -66 -54 -93 -81 -46 -46 -54 -50 -140 -68 -51
-10 -112 -27 -137 -38 -124 -53 -369 -303 -446 -454 -13 -26 -24 -64 -24 -85
0 -35 -4 -40 -47 -63 -61 -32 -210 -181 -242 -242 l-25 -46 27 -61 c15 -34 45
-91 67 -128 22 -36 42 -82 45 -102 3 -20 11 -53 17 -74 l12 -39 -146 -141
c-80 -78 -219 -209 -309 -292 -262 -241 -403 -385 -428 -436 -42 -90 -101
-405 -121 -653 -5 -71 -12 -132 -15 -135 -3 -3 -35 10 -71 27 l-66 33 6 192
c3 106 8 273 12 372 6 172 -8 523 -24 593 l-7 33 -36 -33 c-20 -18 -85 -87
-145 -152 l-108 -119 -17 -241 c-18 -250 -22 -289 -40 -417 l-11 -76 -235 94
c-129 51 -295 116 -370 144 -75 28 -200 80 -277 116 -78 36 -197 87 -266 115
-102 40 -262 110 -430 186 -14 7 -34 18 -46 27 -22 17 20 40 -469 -257 -339
-206 -375 -228 -463 -292 -110 -81 -237 -160 -305 -190 -68 -30 -208 -117
-274 -171 -29 -23 -136 -96 -238 -161 -203 -129 -570 -370 -650 -427 -27 -19
-122 -81 -210 -138 -213 -137 -553 -371 -687 -472 -59 -45 -152 -110 -205
-145 -54 -35 -123 -85 -153 -112 l-55 -49 92 -1 c50 0 127 -6 170 -12 43 -7
108 -13 146 -12 63 1 72 4 140 49 88 58 164 113 369 267 86 64 183 134 215
155 52 33 189 128 773 535 267 187 488 337 920 627 508 340 558 375 600 411
36 30 190 100 221 100 28 0 393 -146 529 -212 127 -61 363 -160 863 -361 l279
-112 -6 -95 c-11 -161 -26 -587 -26 -750 -1 -85 -7 -236 -15 -335 -10 -116
-18 -457 -25 -960 -5 -429 -15 -870 -21 -980 -6 -110 -10 -251 -8 -313 4 -99
2 -112 -13 -112 -9 0 -139 9 -290 20 -297 22 -587 30 -631 17 l-28 -8 6 138
c4 76 13 228 21 338 7 110 18 297 22 415 7 173 13 222 27 249 16 33 45 243 45
339 0 35 -3 42 -19 42 -27 0 -124 -76 -207 -161 -39 -41 -93 -94 -120 -119
-27 -25 -70 -68 -95 -95 -25 -28 -79 -81 -119 -120 -122 -117 -191 -225 -144
-225 9 0 40 14 69 30 l53 30 4 -25 c3 -14 1 -103 -4 -198 -6 -94 -10 -273 -9
-397 1 -213 -20 -604 -32 -617 -4 -3 -480 -6 -1059 -7 -860 -1 -1074 2 -1166
13 -80 11 -127 12 -160 5 l-47 -10 -1 76 c-1 157 27 797 50 1145 19 303 34
591 46 910 6 143 14 296 20 340 13 116 24 331 16 350 -8 22 -29 10 -144 -83
-215 -174 -322 -332 -322 -476 0 -36 -7 -128 -15 -203 -8 -76 -21 -275 -30
-443 -18 -344 -42 -661 -56 -735 -5 -27 -18 -160 -29 -295 -11 -135 -27 -315
-36 -400 -9 -85 -18 -269 -20 -407 -3 -239 -2 -253 15 -263 12 -6 30 -6 48 -1
15 5 107 12 203 16 271 10 1274 8 1580 -4 336 -13 1052 -14 1100 -2 89 23 100
22 100 -4 0 -65 130 14 231 140 l44 55 836 0 c460 0 884 -3 942 -7 l107 -6 0
-62 c0 -34 3 -130 7 -213 7 -177 -3 -172 124 -55 46 43 102 93 124 112 40 35
40 35 45 122 3 49 9 91 13 95 13 14 1485 9 1972 -6 264 -8 554 -14 645 -12
187 4 204 10 273 94 63 77 79 73 -263 74 -168 0 -678 4 -1135 8 -547 5 -900 4
-1035 -3 -113 -6 -262 -12 -332 -14 l-128 -3 0 153 c0 139 2 153 18 154 9 0
384 0 832 -1 448 -1 1083 2 1410 5 l595 8 58 58 c78 77 75 94 -13 93 -285 -3
-2566 -19 -2680 -19 -80 0 -159 -3 -177 -7 l-31 -7 4 450 c2 247 8 536 14 642
5 105 10 260 10 343 0 153 21 614 39 849 6 72 13 168 16 215 4 47 16 146 27
220 13 80 21 188 22 266 l1 132 50 -20 c28 -11 118 -49 200 -85 83 -36 229
-99 325 -138 96 -40 249 -104 340 -143 91 -38 219 -89 285 -112 306 -110 816
-298 993 -366 248 -96 481 -175 645 -219 151 -41 149 -42 243 56 63 66 89 105
77 112 -5 2 -62 21 -128 42 -165 51 -861 303 -1140 413 -126 50 -297 114 -380
142 -137 47 -445 174 -535 220 -53 27 -571 243 -723 301 -222 86 -267 108
-262 133 20 99 10 335 -15 360 -13 13 -111 -56 -167 -118 -25 -28 -55 -71 -67
-96 l-21 -46 -111 46 -111 45 78 84 c86 91 119 148 119 204 0 130 64 582 100
702 11 40 83 110 274 271 34 29 179 170 322 315 261 263 328 346 320 394 -18
94 -30 146 -43 184 l-16 44 29 20 c47 32 170 164 187 200 15 30 14 39 -4 117
-22 92 -38 191 -33 201 2 3 35 11 73 18 81 15 216 76 278 127 l41 34 30 -38
c36 -45 167 -316 188 -391 9 -29 29 -85 45 -124 16 -38 29 -76 29 -84 0 -7 12
-31 26 -52 14 -22 28 -59 31 -83 10 -79 35 -97 90 -61 14 9 33 18 42 19 9 2
28 6 44 10 20 5 27 3 27 -8 0 -8 28 -102 62 -209 33 -107 78 -252 98 -324 50
-173 85 -285 181 -564 193 -561 278 -715 548 -995 75 -77 138 -141 141 -140 3
0 20 19 37 43 27 34 33 52 33 90 0 40 -7 57 -49 117 -27 38 -61 100 -76 137
-15 38 -33 67 -41 67 -8 0 -14 4 -14 9 0 6 -17 19 -38 31 -49 27 -61 49 -105
185 -148 461 -181 568 -217 705 -28 111 -53 180 -86 244 -30 57 -89 218 -165
445 -65 196 -124 371 -131 389 -13 34 -27 39 -60 21 -26 -14 -34 -2 -43 66 -7
53 -46 125 -69 125 -14 0 -38 49 -87 182 -16 46 -50 121 -73 168 -24 47 -60
124 -80 171 -34 79 -87 159 -105 159 -5 0 -28 -14 -51 -31z m-1911 -3499 l213
-85 -8 -30 c-5 -16 -9 -163 -9 -325 -1 -246 -5 -319 -23 -440 -35 -241 -48
-637 -69 -2107 l-4 -322 -171 5 c-94 2 -174 7 -179 9 -4 3 -88 8 -186 11 -98
3 -186 7 -196 10 -14 5 -10 11 25 36 101 72 226 207 261 281 13 26 20 81 27
192 5 86 14 193 20 238 5 45 15 415 21 822 6 407 15 847 20 978 5 130 13 344
18 475 6 130 10 261 10 290 1 30 5 52 10 50 4 -1 104 -41 220 -88z m-44 -3456
l130 -6 -3 -161 c-2 -89 -5 -163 -6 -164 -3 -3 -1005 65 -1131 77 -107 10
-562 40 -604 40 -20 0 -21 5 -21 108 0 60 3 112 7 116 8 8 1413 -1 1628 -10z"/>
<path d="M7936 7275 c-38 -13 -90 -55 -107 -87 -8 -16 -4 -17 55 -11 128 12
192 -45 304 -273 88 -176 122 -260 158 -386 15 -51 55 -156 89 -233 66 -147
77 -184 76 -243 0 -52 28 -180 50 -224 19 -36 79 -78 113 -78 19 0 107 80 128
118 l18 30 -29 12 c-40 16 -78 58 -94 105 -17 47 -32 124 -28 143 7 38 -29
143 -94 282 -40 85 -81 181 -90 214 -41 140 -206 470 -276 550 -74 84 -178
115 -273 81z"/>
</g>
</svg>
